<svg xmlns="http://www.w3.org/2000/svg" viewBox="0 0 1080.67 1079"><g id="Layer_2" data-name="Layer 2"><g id="Layer_1-2" data-name="Layer 1"><path fill="#0d0826" d="M504.44,644a104.53,104.53,0,0,1,0-209.06c45.82,0,87,30.62,100.13,74.46l-7.8,2.34a97,97,0,0,0-92.33-68.65,96.38,96.38,0,0,0,0,192.76,97,97,0,0,0,92.34-68.65l7.81,2.34C591.43,613.41,550.25,644,504.44,644Z"/><path fill="#1fa9b4" d="M398.59,644c-.92,0-1.83,0-2.76,0a104.53,104.53,0,1,1,101-140.22,4.14,4.14,0,0,0,3.85,2.76H786.57v66H500.72a4.1,4.1,0,0,0-3.86,2.77h0A104.47,104.47,0,0,1,398.59,644Zm0-200.91a96.38,96.38,0,0,0-96.36,97.81c.73,51,42.81,93.59,93.78,94.92a96.32,96.32,0,0,0,93.17-63.39,12.32,12.32,0,0,1,11.51-8.13h277.7V514.68H500.72a12.33,12.33,0,0,1-11.51-8.12A96.68,96.68,0,0,0,398.62,443.12Z"/><path fill="#1fa9b4" d="M748.4,514.68H706.86V495.59H668.7V435H715v14.31h25.25V435h46.31v60.62H748.4ZM715,506.53h25.25V487.45h38.16V443.12h-30v14.31H706.86V443.12h-30v44.33H715Z"/></g></g></svg>