<svg xmlns="http://www.w3.org/2000/svg" viewBox="0 0 922.41 389.32"><g id="Layer_2" data-name="Layer 2"><g id="Layer_1-2" data-name="Layer 1"><path fill="#f7f7f7" d="M447.39,178.44a40.23,40.23,0,1,1,0-80.45,40.48,40.48,0,0,1,38.54,28.65l-3,.9a37.32,37.32,0,0,0-35.53-26.42,37.1,37.1,0,0,0,0,74.19,37.34,37.34,0,0,0,35.54-26.42l3,.9A40.48,40.48,0,0,1,447.39,178.44Z"/><path fill="#f7f7f7" d="M406.65,178.44h-1.06a40.23,40.23,0,1,1,38.89-54,1.58,1.58,0,0,0,1.48,1H556v25.39H446a1.58,1.58,0,0,0-1.49,1.06h0A40.19,40.19,0,0,1,406.65,178.44Zm0-77.32a37.1,37.1,0,0,0-37.08,37.65,37.09,37.09,0,0,0,71.95,12.13,4.74,4.74,0,0,1,4.43-3.13H552.84V128.66H446a4.73,4.73,0,0,1-4.43-3.12A37.2,37.2,0,0,0,406.66,101.12Z"/><path fill="#f7f7f7" d="M541.28,128.66h-16v-7.34H510.61V98h17.82v5.5h9.72V98H556v23.33H541.28Zm-12.85-3.14h9.72v-7.34h14.69V101.12H541.28v5.51h-16v-5.51H513.74v17.06h14.69Z"/><path fill="#f7f7f7" d="M280.19,283H228.8a16.26,16.26,0,0,1-8.58-2.33,17.81,17.81,0,0,1-6.21-6.2,16.4,16.4,0,0,1-2.33-8.58v-30A16.47,16.47,0,0,1,214,227.3a17.81,17.81,0,0,1,6.21-6.2,16.26,16.26,0,0,1,8.58-2.33h51.39a16.41,16.41,0,0,1,8.61,2.33,17.62,17.62,0,0,1,6.2,6.2,16.55,16.55,0,0,1,2.31,8.63h-8.56a8.4,8.4,0,0,0-8.56-8.56H228.8a8.45,8.45,0,0,0-8.56,8.56v30a8.49,8.49,0,0,0,8.56,8.55h51.39a8.44,8.44,0,0,0,8.56-8.55h8.56a16.47,16.47,0,0,1-2.31,8.58,17.62,17.62,0,0,1-6.2,6.2A16.41,16.41,0,0,1,280.19,283Z"/><path fill="#f7f7f7" d="M312.57,283H304V218.77h8.56Z"/><path fill="#f7f7f7" d="M387.57,283H334.06a15,15,0,0,1,0-30H379v-4.3a8.47,8.47,0,0,0-8.56-8.56h-47.1v-8.55h47.1a16.63,16.63,0,0,1,8.6,2.3,17.43,17.43,0,0,1,6.21,6.21,16.57,16.57,0,0,1,2.31,8.6ZM379,274.46V261.6H334.06a6.3,6.3,0,0,0-4.59,1.84,6.16,6.16,0,0,0-1.86,4.57,6.35,6.35,0,0,0,6.45,6.45Z"/><path fill="#f7f7f7" d="M428.05,283h-9.63L389,231.63h9.68l24.6,43,24.55-43h9.68Z"/><path fill="#f7f7f7" d="M521.15,283H475a16.28,16.28,0,0,1-8.58-2.33,18,18,0,0,1-6.21-6.2,16.4,16.4,0,0,1-2.33-8.58V246.64a13.07,13.07,0,0,1,2.42-7.78,16.82,16.82,0,0,1,6.37-5.31,19.09,19.09,0,0,1,8.47-1.92H507a19,19,0,0,1,8.45,1.92,16.88,16.88,0,0,1,6.34,5.31,13.07,13.07,0,0,1,2.42,7.78v15H466.39v4.31a8.49,8.49,0,0,0,8.56,8.55h46.2Zm-5.51-30v-6.4a5.18,5.18,0,0,0-1.06-3.09,7.56,7.56,0,0,0-3-2.42,10.42,10.42,0,0,0-4.59-.95h-31.9a10.43,10.43,0,0,0-4.6.95,7.77,7.77,0,0,0-3,2.42,5.14,5.14,0,0,0-1.08,3.09V253Z"/><path fill="#f7f7f7" d="M579.88,283h-51.4v-8.56h51.4a10.14,10.14,0,0,0,4.52-.94,7.6,7.6,0,0,0,3-2.44,5.29,5.29,0,0,0,1-3.07,5.23,5.23,0,0,0-1-3.05,7.74,7.74,0,0,0-3-2.42,10.27,10.27,0,0,0-4.52-.94H545.6a18.66,18.66,0,0,1-8.41-2,16.6,16.6,0,0,1-6.31-5.33,13.57,13.57,0,0,1,0-15.41,16.62,16.62,0,0,1,6.31-5.34,18.78,18.78,0,0,1,8.41-1.94H597v8.55H545.6a10.15,10.15,0,0,0-4.53.95,7.63,7.63,0,0,0-3,2.42,5.23,5.23,0,0,0-1.05,3.09,5.18,5.18,0,0,0,1.05,3,7.63,7.63,0,0,0,3,2.42,10.15,10.15,0,0,0,4.53.94h34.28a18.58,18.58,0,0,1,8.42,2,16.74,16.74,0,0,1,6.29,5.31,13.62,13.62,0,0,1,0,15.44,16.61,16.61,0,0,1-6.29,5.33A18.58,18.58,0,0,1,579.88,283Z"/><path fill="#f7f7f7" d="M612.08,283h-8.56V218.77h8.56Z"/><path fill="#f7f7f7" d="M682.59,291.58H674L671.7,283H637.91a16.31,16.31,0,0,1-8.58-2.33,17.87,17.87,0,0,1-6.2-6.2,16.31,16.31,0,0,1-2.33-8.58v-30a16.38,16.38,0,0,1,2.33-8.63,17.87,17.87,0,0,1,6.2-6.2,16.31,16.31,0,0,1,8.58-2.33h55.7a16.38,16.38,0,0,1,8.6,2.33,17.65,17.65,0,0,1,6.21,6.2,16.55,16.55,0,0,1,2.31,8.63v30a16.47,16.47,0,0,1-2.31,8.58,17.65,17.65,0,0,1-6.21,6.2,16.38,16.38,0,0,1-8.6,2.33H680.26Zm11-17.12a8.49,8.49,0,0,0,8.56-8.55v-30a8.5,8.5,0,0,0-8.56-8.61h-55.7a8.5,8.5,0,0,0-8.56,8.61v30a8.49,8.49,0,0,0,8.56,8.55h31.5l-2.28-8.55h8.56l2.28,8.55Z"/></g></g></svg>