<svg xmlns="http://www.w3.org/2000/svg" viewBox="0 0 751.79 750.63"><g id="Layer_2" data-name="Layer 2"><g id="Layer_1-2" data-name="Layer 1"><path fill="#1fa9b4" d="M347.08,459.25a83.93,83.93,0,0,1,0-167.86,84.44,84.44,0,0,1,80.4,59.78l-6.27,1.88a77.85,77.85,0,0,0-74.13-55.12,77.39,77.39,0,0,0,0,154.78,77.88,77.88,0,0,0,74.14-55.13l6.27,1.88A84.48,84.48,0,0,1,347.08,459.25Z"/><path fill="#1fa9b4" d="M262.09,459.25l-2.22,0A83.93,83.93,0,1,1,341,346.63a3.32,3.32,0,0,0,3.09,2.21H573.61v53H344.09A3.3,3.3,0,0,0,341,404h0A83.88,83.88,0,0,1,262.09,459.25Zm0-161.32a77.39,77.39,0,0,0-77.38,78.54c.59,41,34.38,75.14,75.31,76.21a77.35,77.35,0,0,0,74.81-50.9,9.9,9.9,0,0,1,9.24-6.53h223V355.38h-223a9.88,9.88,0,0,1-9.24-6.51A77.64,77.64,0,0,0,262.11,297.93Z"/><path fill="#1fa9b4" d="M543,355.38H509.61V340.06H479V291.39h37.19v11.49h20.27V291.39h37.18v48.67H543Zm-26.81-6.54h20.27V333.52h30.64V297.93H543v11.49H509.61V297.93h-24.1v35.59h30.65Z"/></g></g></svg>