<svg xmlns="http://www.w3.org/2000/svg" viewBox="0 0 922.41 389.32"><g id="Layer_2" data-name="Layer 2"><g id="Layer_1-2" data-name="Layer 1"><path fill="#37da71" d="M447.39,178.2a40.23,40.23,0,0,1,0-80.46,40.48,40.48,0,0,1,38.54,28.66l-3,.9a37.32,37.32,0,0,0-35.53-26.43,37.1,37.1,0,1,0,0,74.19,37.33,37.33,0,0,0,35.54-26.42l3,.9A40.49,40.49,0,0,1,447.39,178.2Z"/><path fill="#1fa9b4" d="M406.65,178.2l-1.06,0a40.23,40.23,0,1,1,38.89-54,1.59,1.59,0,0,0,1.48,1.06H556v25.38H446a1.59,1.59,0,0,0-1.49,1.07h0A40.2,40.2,0,0,1,406.65,178.2Zm0-77.32a37.08,37.08,0,0,0-37.08,37.64,37.09,37.09,0,0,0,71.95,12.13,4.74,4.74,0,0,1,4.43-3.13H552.84V128.41H446a4.73,4.73,0,0,1-4.43-3.12A37.21,37.21,0,0,0,406.66,100.88Z"/><path fill="#1fa9b4" d="M541.28,128.41h-16v-7.34H510.61V97.74h17.82v5.51h9.72V97.74H556v23.33H541.28Zm-12.85-3.13h9.72v-7.35h14.69V100.87H541.28v5.51h-16v-5.51H513.74v17.06h14.69Z"/><path fill="#f7f7f7" d="M280.19,282.78H228.8a16.26,16.26,0,0,1-8.58-2.34,17.81,17.81,0,0,1-6.21-6.2,16.4,16.4,0,0,1-2.33-8.58v-30a16.44,16.44,0,0,1,2.33-8.62,17.76,17.76,0,0,1,6.21-6.21,16.35,16.35,0,0,1,8.58-2.33h51.39a16.5,16.5,0,0,1,8.61,2.33,17.56,17.56,0,0,1,6.2,6.21,16.51,16.51,0,0,1,2.31,8.62h-8.56a8.42,8.42,0,0,0-8.56-8.56H228.8a8.47,8.47,0,0,0-8.56,8.56v30a8.5,8.5,0,0,0,8.56,8.56h51.39a8.45,8.45,0,0,0,8.56-8.56h8.56a16.47,16.47,0,0,1-2.31,8.58,17.62,17.62,0,0,1-6.2,6.2A16.42,16.42,0,0,1,280.19,282.78Z"/><path fill="#f7f7f7" d="M312.57,282.78H304V218.52h8.56Z"/><path fill="#f7f7f7" d="M387.57,282.78H334.06a15,15,0,0,1,0-30H379v-4.3a8.45,8.45,0,0,0-8.56-8.56h-47.1v-8.56h47.1a16.55,16.55,0,0,1,8.6,2.31,17.4,17.4,0,0,1,6.21,6.2,16.58,16.58,0,0,1,2.31,8.61ZM379,274.22V261.36H334.06a6.29,6.29,0,0,0-4.59,1.83,6.18,6.18,0,0,0-1.86,4.57,6.35,6.35,0,0,0,6.45,6.46Z"/><path fill="#f7f7f7" d="M428.05,282.78h-9.63L389,231.38h9.68l24.6,43,24.55-43h9.68Z"/><path fill="#f7f7f7" d="M521.15,282.78H475a16.29,16.29,0,0,1-8.58-2.34,18,18,0,0,1-6.21-6.2,16.4,16.4,0,0,1-2.33-8.58V246.39a13,13,0,0,1,2.42-7.77,16.64,16.64,0,0,1,6.37-5.31,19,19,0,0,1,8.47-1.93H507a18.85,18.85,0,0,1,8.45,1.93,16.69,16.69,0,0,1,6.34,5.31,13,13,0,0,1,2.42,7.77v15H466.39v4.3a8.5,8.5,0,0,0,8.56,8.56h46.2Zm-5.51-30v-6.41a5.18,5.18,0,0,0-1.06-3.09,7.65,7.65,0,0,0-3-2.42,10.42,10.42,0,0,0-4.59-.94h-31.9a10.43,10.43,0,0,0-4.6.94,7.86,7.86,0,0,0-3,2.42,5.14,5.14,0,0,0-1.08,3.09v6.41Z"/><path fill="#f7f7f7" d="M579.88,282.78h-51.4v-8.56h51.4a10.27,10.27,0,0,0,4.52-.94,7.54,7.54,0,0,0,3-2.45,5.29,5.29,0,0,0,1-3.07,5.18,5.18,0,0,0-1-3,7.56,7.56,0,0,0-3-2.42,10.14,10.14,0,0,0-4.52-.94H545.6a18.66,18.66,0,0,1-8.41-1.95,16.69,16.69,0,0,1-6.31-5.33,13.58,13.58,0,0,1,0-15.42,16.69,16.69,0,0,1,6.31-5.33,18.66,18.66,0,0,1,8.41-2H597v8.56H545.6a10.15,10.15,0,0,0-4.53.94,7.72,7.72,0,0,0-3,2.42,5,5,0,0,0,0,6.14,7.81,7.81,0,0,0,3,2.42,10.29,10.29,0,0,0,4.53.94h34.28a18.58,18.58,0,0,1,8.42,1.95,16.74,16.74,0,0,1,6.29,5.31,13.6,13.6,0,0,1,0,15.43,16.64,16.64,0,0,1-6.29,5.34A18.58,18.58,0,0,1,579.88,282.78Z"/><path fill="#f7f7f7" d="M612.08,282.78h-8.56V218.52h8.56Z"/><path fill="#f7f7f7" d="M682.59,291.33H674l-2.28-8.55H637.91a16.31,16.31,0,0,1-8.58-2.34,17.87,17.87,0,0,1-6.2-6.2,16.31,16.31,0,0,1-2.33-8.58v-30a16.35,16.35,0,0,1,2.33-8.62,17.81,17.81,0,0,1,6.2-6.21,16.4,16.4,0,0,1,8.58-2.33h55.7a16.47,16.47,0,0,1,8.6,2.33,17.59,17.59,0,0,1,6.21,6.21,16.51,16.51,0,0,1,2.31,8.62v30a16.47,16.47,0,0,1-2.31,8.58,17.65,17.65,0,0,1-6.21,6.2,16.38,16.38,0,0,1-8.6,2.34H680.26Zm11-17.11a8.5,8.5,0,0,0,8.56-8.56v-30a8.49,8.49,0,0,0-8.56-8.6h-55.7a8.49,8.49,0,0,0-8.56,8.6v30a8.5,8.5,0,0,0,8.56,8.56h31.5l-2.28-8.56h8.56l2.28,8.56Z"/></g></g></svg>